<?xml version="1.0" encoding="UTF-8" standalone="no"?>
<!DOCTYPE svg PUBLIC "-//W3C//DTD SVG 1.1//EN" "http://www.w3.org/Graphics/SVG/1.1/DTD/svg11.dtd">
<svg width="100%" height="100%" viewBox="0 0 9795 9982" version="1.1" xmlns="http://www.w3.org/2000/svg" xmlns:xlink="http://www.w3.org/1999/xlink" xml:space="preserve" xmlns:serif="http://www.serif.com/" style="fill-rule:evenodd;clip-rule:evenodd;stroke-linejoin:round;stroke-miterlimit:2;">
    <g transform="matrix(3.69995,0,0,3.7711,-1679.56,-10912.1)">
        <g transform="matrix(0.450226,-0.259938,0.259938,0.450226,-351.562,3648.53)">
            <path d="M3840.98,4456.62L4270.43,5200.44C3884.17,5423.45 3446.01,5540.85 3000,5540.85L3000,4681.24C3306.13,4681.24 3593.32,4599.5 3840.98,4456.62Z" style="fill:white;"/>
        </g>
        <g transform="matrix(0.259938,-0.450226,0.450226,0.259938,-350.57,4789.27)">
            <path d="M3840.98,4456.62L4270.43,5200.44C3884.17,5423.45 3446.01,5540.85 3000,5540.85L3000,4681.24C3306.13,4681.24 3593.32,4599.5 3840.98,4456.62Z"/>
        </g>
        <g transform="matrix(3.18332e-17,-0.519876,0.519876,3.18332e-17,220.656,5776.68)">
            <path d="M3840.98,4456.62L4270.43,5200.44C3884.17,5423.45 3446.01,5540.85 3000,5540.85L3000,4681.24C3306.13,4681.24 3593.32,4599.5 3840.98,4456.62Z" style="fill:white;"/>
        </g>
        <g transform="matrix(-0.259938,-0.450226,0.450226,-0.259938,1209.06,6346.19)">
            <path d="M3840.98,4456.62L4270.43,5200.44C3884.17,5423.45 3446.01,5540.85 3000,5540.85L3000,4681.24C3306.13,4681.24 3593.32,4599.5 3840.98,4456.62Z"/>
        </g>
        <g transform="matrix(-0.450226,-0.259938,0.259938,-0.450226,2349.79,6345.2)">
            <path d="M3840.98,4456.62L4270.43,5200.44C3884.17,5423.45 3446.01,5540.85 3000,5540.85L3000,4681.24C3306.13,4681.24 3593.32,4599.5 3840.98,4456.62Z" style="fill:white;"/>
        </g>
        <g transform="matrix(-0.519876,-6.36664e-17,6.36664e-17,-0.519876,3337.2,5774.15)">
            <path d="M3840.98,4456.62L4270.43,5200.44C3884.17,5423.45 3446.01,5540.85 3000,5540.85L3000,4681.24C3306.13,4681.24 3593.32,4599.5 3840.98,4456.62Z"/>
        </g>
        <g transform="matrix(-0.450226,0.259938,-0.259938,-0.450226,3906.71,4785.75)">
            <path d="M3840.98,4456.62L4270.43,5200.44C3884.17,5423.45 3446.01,5540.85 3000,5540.85L3000,4681.24C3306.13,4681.24 3593.32,4599.5 3840.98,4456.62Z" style="fill:white;"/>
        </g>
        <g transform="matrix(-0.259938,0.450226,-0.450226,-0.259938,3905.72,3645.02)">
            <path d="M3840.98,4456.62L4270.43,5200.44C3884.17,5423.45 3446.01,5540.85 3000,5540.85L3000,4681.24C3306.13,4681.24 3593.32,4599.5 3840.98,4456.62Z"/>
        </g>
        <g transform="matrix(-9.54997e-17,0.519876,-0.519876,-9.54997e-17,3334.49,2657.61)">
            <path d="M3840.98,4456.62L4270.43,5200.44C3884.17,5423.45 3446.01,5540.85 3000,5540.85L3000,4681.24C3306.13,4681.24 3593.32,4599.5 3840.98,4456.62Z" style="fill:white;"/>
        </g>
        <g transform="matrix(0.259938,0.450226,-0.450226,0.259938,2346.09,2088.1)">
            <path d="M3840.98,4456.62L4270.43,5200.44C3884.17,5423.45 3446.01,5540.85 3000,5540.85L3000,4681.24C3306.13,4681.24 3593.32,4599.5 3840.98,4456.62Z"/>
        </g>
        <g transform="matrix(0.450226,0.259938,-0.259938,0.450226,1205.36,2089.09)">
            <path d="M3840.98,4456.62L4270.43,5200.44C3884.17,5423.45 3446.01,5540.85 3000,5540.85L3000,4681.24C3306.13,4681.24 3593.32,4599.5 3840.98,4456.62Z" style="fill:white;"/>
        </g>
        <g transform="matrix(0.519876,0,0,0.519876,217.948,2659.63)">
            <path d="M3840.98,4456.62L4270.43,5200.44C3884.17,5423.45 3446.01,5540.85 3000,5540.85L3000,4681.24C3306.13,4681.24 3593.32,4599.5 3840.98,4456.62Z"/>
        </g>
        <g transform="matrix(0.519876,0,0,0.519876,216.594,2660.13)">
            <path d="M3267.06,3457.36L3843.22,4455.3C3586.85,4603.32 3296.03,4681.24 3000,4681.24L3000,3528.91C3097.25,3528.91 3188.46,3502.86 3267.06,3457.36Z" style="fill:white;"/>
        </g>
        <g transform="matrix(0.450226,-0.259938,0.259938,0.450226,-347.75,3640.55)">
            <path d="M3267.06,3457.36L3843.22,4455.3C3586.85,4603.32 3296.03,4681.24 3000,4681.24L3000,3528.91C3097.25,3528.91 3188.46,3502.86 3267.06,3457.36Z"/>
        </g>
        <g transform="matrix(0.259938,-0.450226,0.450226,0.259938,-351.051,4791.98)">
            <path d="M3267.06,3457.36L3843.22,4455.3C3586.85,4603.32 3296.03,4681.24 3000,4681.24L3000,3528.91C3097.25,3528.91 3188.46,3502.86 3267.06,3457.36Z" style="fill:white;"/>
        </g>
        <g transform="matrix(3.18332e-17,-0.519876,0.519876,3.18332e-17,220.653,5776.68)">
            <path d="M3267.06,3457.36L3843.22,4455.3C3586.85,4603.32 3296.03,4681.24 3000,4681.24L3000,3528.91C3097.25,3528.91 3188.46,3502.86 3267.06,3457.36Z"/>
        </g>
        <g transform="matrix(-0.259938,-0.450226,0.450226,-0.259938,1207.08,6346.19)">
            <path d="M3267.06,3457.36L3843.22,4455.3C3586.85,4603.32 3296.03,4681.24 3000,4681.24L3000,3528.91C3097.25,3528.91 3188.46,3502.86 3267.06,3457.36Z" style="fill:white;"/>
        </g>
        <g transform="matrix(-0.450226,-0.259938,0.259938,-0.450226,2348.44,6345.2)">
            <path d="M3267.06,3457.36L3843.22,4455.3C3586.85,4603.32 3296.03,4681.24 3000,4681.24L3000,3528.91C3097.25,3528.91 3188.46,3502.86 3267.06,3457.36Z"/>
        </g>
        <g transform="matrix(-0.519876,-6.36664e-17,6.36664e-17,-0.519876,3335.85,5773.97)">
            <path d="M3267.06,3457.36L3843.22,4455.3C3586.85,4603.32 3296.03,4681.24 3000,4681.24L3000,3528.91C3097.25,3528.91 3188.46,3502.86 3267.06,3457.36Z" style="fill:white;"/>
        </g>
        <g transform="matrix(-0.450226,0.259938,-0.259938,-0.450226,3916.05,4785.57)">
            <path d="M3267.06,3457.36L3843.22,4455.3C3586.85,4603.32 3296.03,4681.24 3000,4681.24L3000,3528.91C3097.25,3528.91 3188.46,3502.86 3267.06,3457.36Z"/>
        </g>
        <g transform="matrix(-0.259938,0.450226,-0.450226,-0.259938,3904.37,3644.84)">
            <path d="M3267.06,3457.36L3843.22,4455.3C3586.85,4603.32 3296.03,4681.24 3000,4681.24L3000,3528.91C3097.25,3528.91 3188.46,3502.86 3267.06,3457.36Z" style="fill:white;"/>
        </g>
        <g transform="matrix(-9.54997e-17,0.519876,-0.519876,-9.54997e-17,3334.5,2660.13)">
            <path d="M3267.06,3457.36L3843.22,4455.3C3586.85,4603.32 3296.03,4681.24 3000,4681.24L3000,3528.91C3097.25,3528.91 3188.46,3502.86 3267.06,3457.36Z"/>
        </g>
        <g transform="matrix(0.259938,0.450226,-0.450226,0.259938,2344.74,2087.92)">
            <path d="M3267.06,3457.36L3843.22,4455.3C3586.85,4603.32 3296.03,4681.24 3000,4681.24L3000,3528.91C3097.25,3528.91 3188.46,3502.86 3267.06,3457.36Z" style="fill:white;"/>
        </g>
        <g transform="matrix(0.450226,0.259938,-0.259938,0.450226,1205.36,2088.9)">
            <path d="M3267.06,3457.36L3843.22,4455.3C3586.85,4603.32 3296.03,4681.24 3000,4681.24L3000,3528.91C3097.25,3528.91 3188.46,3502.86 3267.06,3457.36Z"/>
        </g>
        <g transform="matrix(0.331576,0,0,0.331576,396.074,3593.84)">
            <circle cx="4166.47" cy="1879.55" r="837.434" style="fill:white;"/>
        </g>
    </g>
</svg>
